<?xml version="1.0" standalone="no"?>
<!DOCTYPE svg PUBLIC "-//W3C//DTD SVG 20010904//EN"
 "http://www.w3.org/TR/2001/REC-SVG-20010904/DTD/svg10.dtd">
<svg version="1.0" xmlns="http://www.w3.org/2000/svg"
 width="512.000000pt" height="512.000000pt" viewBox="0 0 512.000000 512.000000"
 preserveAspectRatio="xMidYMid meet">
<metadata>
Created by potrace 1.11, written by Peter Selinger 2001-2013
</metadata>
<g transform="translate(0.000000,512.000000) scale(0.100000,-0.100000)"
fill="#000000" stroke="none">
<path d="M925 3758 c-2 -7 -114 -528 -250 -1158 -136 -630 -249 -1155 -252
-1167 l-5 -23 235 0 236 0 10 53 c6 28 24 129 41 222 17 94 33 182 36 198 l6
27 154 0 c85 0 154 -1 154 -2 1 -2 22 -113 48 -248 l47 -245 233 -3 c188 -2
232 0 232 11 0 21 -498 2326 -505 2337 -10 16 -415 13 -420 -2z m276 -1126
c31 -229 54 -421 50 -425 -11 -12 -236 -4 -235 8 57 417 119 843 123 839 3 -2
30 -192 62 -422z"/>
<path d="M3075 3758 c-7 -18 -505 -2325 -505 -2338 0 -6 80 -10 235 -10 129 0
235 4 235 8 0 10 78 439 85 470 5 22 8 22 159 22 l154 0 48 -250 48 -250 233
0 c128 0 233 3 233 8 0 11 -499 2325 -505 2340 -3 9 -55 12 -210 12 -155 0
-207 -3 -210 -12z m274 -1134 c31 -228 55 -417 52 -419 -8 -8 -230 -5 -234 3
-4 6 17 158 104 772 7 47 14 79 17 71 2 -7 30 -200 61 -427z"/>
<path d="M2000 1615 l0 -205 210 0 210 0 0 205 0 205 -210 0 -210 0 0 -205z"/>
<path d="M4150 1615 l0 -205 210 0 210 0 0 205 0 205 -210 0 -210 0 0 -205z"/>
</g>
</svg>
